<?xml version="1.0" encoding="UTF-8" standalone="no"?>
<svg
   xmlns:dc="http://purl.org/dc/elements/1.1/"
   xmlns:cc="http://creativecommons.org/ns#"
   xmlns:rdf="http://www.w3.org/1999/02/22-rdf-syntax-ns#"
   xmlns:svg="http://www.w3.org/2000/svg"
   xmlns="http://www.w3.org/2000/svg"
   xmlns:sodipodi="http://sodipodi.sourceforge.net/DTD/sodipodi-0.dtd"
   xmlns:inkscape="http://www.inkscape.org/namespaces/inkscape"
   width="16"
   height="16"
   version="1.1"
   id="svg7"
   sodipodi:docname="edit-clear.svg"
   inkscape:version="0.92.4 5da689c313, 2019-01-14">
  <metadata
     id="metadata11">
    <rdf:RDF>
      <cc:Work
         rdf:about="">
        <dc:format>image/svg+xml</dc:format>
        <dc:type
           rdf:resource="http://purl.org/dc/dcmitype/StillImage" />
      </cc:Work>
    </rdf:RDF>
  </metadata>
  <sodipodi:namedview
     pagecolor="#ad9760"
     bordercolor="#666666"
     borderopacity="1"
     objecttolerance="10"
     gridtolerance="10"
     guidetolerance="10"
     inkscape:pageopacity="0"
     inkscape:pageshadow="2"
     inkscape:window-width="1920"
     inkscape:window-height="1137"
     id="namedview9"
     showgrid="false"
     inkscape:zoom="29.5"
     inkscape:cx="13.301655"
     inkscape:cy="1.5852495"
     inkscape:window-x="1920"
     inkscape:window-y="30"
     inkscape:window-maximized="1"
     inkscape:current-layer="g852" />
  <defs
     id="defs3">
    <style
       id="current-color-scheme"
       type="text/css">
   .ColorScheme-Text { color:#444444; } .ColorScheme-Highlight { color:#4285f4; }
  </style>
  </defs>
  <g
     id="g852"
     transform="translate(16.067797,1.2881356)">
    <g
       id="g856" />
    <g
       id="g862"
       transform="translate(0,-2)">
      <rect
         y="2.7962527"
         x="-16.067797"
         height="11.915611"
         width="16"
         id="rect833"
         style="opacity:0;fill:#ffff00;fill-opacity:1;stroke-width:0.99578059" />
      <path
         id="path5-3"
         d="m -9.3451317,3.7118675 -4.1666653,5 4.1666653,4.9999965 h 9.16666532 V 3.7118675 Z m 1.6666665,2.5 h 0.833333 c 0.233333,0 0.441667,0.09167 0.591667,0.241666 l 1.074999,1.083334 1.075001,-1.083334 c 0.149999,-0.149999 0.358333,-0.241666 0.591666,-0.241666 h 0.833333 v 0.833333 c 0,0.233333 -0.09167,0.441667 -0.241666,0.591667 l -1.083334,1.075 1.083334,1.074999 c 0.15,0.15 0.241666,0.3583335 0.241666,0.5916665 v 0.833333 h -0.833333 c -0.233333,0 -0.441667,-0.09167 -0.591666,-0.241666 L -5.1784662,9.8868665 -6.2534652,10.9702 c -0.15,0.149999 -0.358334,0.241666 -0.591667,0.241666 h -0.833333 v -0.833333 c 0,-0.233333 0.09167,-0.4416665 0.241666,-0.5916665 l 1.083334,-1.074999 -1.083334,-1.075 c -0.15,-0.15 -0.241666,-0.358334 -0.241666,-0.591667 z"
         class="ColorScheme-Text"
         style="color:#444444;fill:currentColor;stroke-width:0.83333319"
         inkscape:connector-curvature="0" />
    </g>
  </g>
</svg>
