<?xml version="1.0" encoding="UTF-8" standalone="no"?>
<svg
   xmlns:dc="http://purl.org/dc/elements/1.1/"
   xmlns:cc="http://creativecommons.org/ns#"
   xmlns:rdf="http://www.w3.org/1999/02/22-rdf-syntax-ns#"
   xmlns:svg="http://www.w3.org/2000/svg"
   xmlns="http://www.w3.org/2000/svg"
   xmlns:xlink="http://www.w3.org/1999/xlink"
   xmlns:sodipodi="http://sodipodi.sourceforge.net/DTD/sodipodi-0.dtd"
   xmlns:inkscape="http://www.inkscape.org/namespaces/inkscape"
   width="48"
   height="48"
   version="1.1"
   id="svg71"
   sodipodi:docname="action-overlays.svg"
   inkscape:version="0.92.4 5da689c313, 2019-01-14">
  <metadata
     id="metadata77">
    <rdf:RDF>
      <cc:Work
         rdf:about="">
        <dc:format>image/svg+xml</dc:format>
        <dc:type
           rdf:resource="http://purl.org/dc/dcmitype/StillImage" />
      </cc:Work>
    </rdf:RDF>
  </metadata>
  <defs
     id="defs75" />
  <sodipodi:namedview
     pagecolor="#ffffff"
     bordercolor="#666666"
     borderopacity="1"
     objecttolerance="10"
     gridtolerance="10"
     guidetolerance="10"
     inkscape:pageopacity="0"
     inkscape:pageshadow="2"
     inkscape:window-width="1920"
     inkscape:window-height="1137"
     id="namedview73"
     showgrid="false"
     inkscape:zoom="13.906433"
     inkscape:cx="18.255008"
     inkscape:cy="21.524488"
     inkscape:window-x="1920"
     inkscape:window-y="30"
     inkscape:window-maximized="1"
     inkscape:current-layer="svg71" />
  <g
     id="remove-normal"
     transform="translate(0,-18)">
    <rect
       style="opacity:0.001"
       width="16"
       height="16"
       x="0"
       y="34"
       id="rect2" />
    <path
       style="fill:#424242"
       d="m 15,41.999999 a 6.9999999,6.9999999 0 0 1 -7,6.999999 6.9999999,6.9999999 0 0 1 -7,-6.999999 6.9999999,6.9999999 0 0 1 7,-7 6.9999999,6.9999999 0 0 1 7,7 z"
       id="path4" />
    <rect
       style="fill:#c3c7d1;fill-opacity:1"
       width="2"
       height="8"
       x="41"
       y="-12"
       transform="rotate(90)"
       id="rect6" />
  </g>
  <g
     id="add-normal"
     transform="translate(0,-18)">
    <rect
       style="opacity:0.001"
       width="16"
       height="16"
       x="0"
       y="18"
       id="rect9" />
    <path
       style="fill:#424242"
       d="m 15,25.999999 a 6.9999999,6.9999999 0 0 1 -7,6.999999 6.9999999,6.9999999 0 0 1 -7,-6.999999 6.9999999,6.9999999 0 0 1 7,-7 6.9999999,6.9999999 0 0 1 7,7 z"
       id="path11" />
    <rect
       style="fill:#c3c7d1;fill-opacity:1"
       width="2"
       height="8"
       x="7"
       y="22"
       id="rect13" />
    <rect
       style="fill:#c3c7d1;fill-opacity:1"
       width="2"
       height="8"
       x="25"
       y="-12"
       transform="rotate(90)"
       id="rect15" />
  </g>
  <g
     id="remove-hover"
     transform="translate(16,-18)">
    <rect
       style="opacity:0.001"
       width="16"
       height="16"
       x="0"
       y="34"
       id="rect25" />
    <path
       style="fill:#424242"
       d="m 15,41.999999 a 6.9999999,6.9999999 0 0 1 -7,6.999999 6.9999999,6.9999999 0 0 1 -7,-6.999999 6.9999999,6.9999999 0 0 1 7,-7 6.9999999,6.9999999 0 0 1 7,7 z"
       id="path27" />
    <rect
       style="fill:#c3c7d1;fill-opacity:1"
       width="2"
       height="8"
       x="41"
       y="-12"
       transform="rotate(90)"
       id="rect29" />
  </g>
  <g
     id="add-hover"
     transform="translate(16,-18)">
    <rect
       style="opacity:0.001"
       width="16"
       height="16"
       x="0"
       y="18"
       id="rect32" />
    <path
       style="fill:#424242"
       d="m 15,25.999999 a 6.9999999,6.9999999 0 0 1 -7,6.999999 6.9999999,6.9999999 0 0 1 -7,-6.999999 6.9999999,6.9999999 0 0 1 7,-7 6.9999999,6.9999999 0 0 1 7,7 z"
       id="path34" />
    <rect
       style="fill:#c3c7d1;fill-opacity:1"
       width="2"
       height="8"
       x="7"
       y="22"
       id="rect36" />
    <rect
       style="fill:#c3c7d1;fill-opacity:1"
       width="2"
       height="8"
       x="25"
       y="-12"
       transform="rotate(90)"
       id="rect38" />
  </g>
  <g
     id="remove-pressed"
     transform="translate(32,-18)">
    <rect
       style="opacity:0.001"
       width="16"
       height="16"
       x="0"
       y="34"
       id="rect48" />
    <path
       style="fill:#424242"
       d="m 15,41.999999 a 6.9999999,6.9999999 0 0 1 -7,6.999999 6.9999999,6.9999999 0 0 1 -7,-6.999999 6.9999999,6.9999999 0 0 1 7,-7 6.9999999,6.9999999 0 0 1 7,7 z"
       id="path50" />
    <rect
       style="fill:#c3c7d1;fill-opacity:1"
       width="2"
       height="8"
       x="41"
       y="-12"
       transform="rotate(90)"
       id="rect52" />
  </g>
  <g
     id="add-pressed"
     transform="translate(32,-18)">
    <rect
       style="opacity:0.001"
       width="16"
       height="16"
       x="0"
       y="18"
       id="rect55" />
    <path
       style="fill:#424242"
       d="m 15,25.999999 a 6.9999999,6.9999999 0 0 1 -7,6.999999 6.9999999,6.9999999 0 0 1 -7,-6.999999 6.9999999,6.9999999 0 0 1 7,-7 6.9999999,6.9999999 0 0 1 7,7 z"
       id="path57" />
    <rect
       style="fill:#c3c7d1;fill-opacity:1"
       width="2"
       height="8"
       x="7"
       y="22"
       id="rect59" />
    <rect
       style="fill:#c3c7d1;fill-opacity:1"
       width="2"
       height="8"
       x="25"
       y="-12"
       transform="rotate(90)"
       id="rect61" />
  </g>
  <g
     id="open-normal">
    <rect
       style="opacity:0.00100002"
       width="16"
       height="16"
       x="0"
       y="32"
       id="rect18" />
    <path
       style="fill:#424242"
       d="m 15,39.999999 a 6.9999999,6.9999999 0 0 1 -7,6.999999 6.9999999,6.9999999 0 0 1 -7,-6.999999 6.9999999,6.9999999 0 0 1 7,-7 6.9999999,6.9999999 0 0 1 7,7 z"
       id="path20"
       inkscape:connector-curvature="0" />
    <path
       sodipodi:nodetypes="ccccccc"
       inkscape:connector-curvature="0"
       id="path4222"
       d="M 3.0000014,41.399882 4,42.359545 8.0000004,38.5213 12,42.359545 12.999999,41.399882 8.0000004,36.602245 Z"
       style="opacity:1;fill:#c3c7d1;fill-opacity:1;stroke:none;stroke-width:2.07795882;stroke-miterlimit:4;stroke-dasharray:none" />
  </g>
  <use
     x="0"
     y="0"
     xlink:href="#open-normal"
     id="open-hover"
     transform="translate(16)"
     width="100%"
     height="100%" />
  <use
     x="0"
     y="0"
     xlink:href="#open-normal"
     id="open-pressed"
     transform="translate(32)"
     width="100%"
     height="100%" />
</svg>
