<?xml version="1.0" encoding="UTF-8" standalone="no"?>
<svg
   xmlns:dc="http://purl.org/dc/elements/1.1/"
   xmlns:cc="http://creativecommons.org/ns#"
   xmlns:rdf="http://www.w3.org/1999/02/22-rdf-syntax-ns#"
   xmlns:svg="http://www.w3.org/2000/svg"
   xmlns="http://www.w3.org/2000/svg"
   xmlns:sodipodi="http://sodipodi.sourceforge.net/DTD/sodipodi-0.dtd"
   xmlns:inkscape="http://www.inkscape.org/namespaces/inkscape"
   id="svg11324"
   width="15.344"
   height="23"
   version="1"
   sodipodi:docname="pager.svg"
   inkscape:version="0.92.2 2405546, 2018-03-11">
  <metadata
     id="metadata35">
    <rdf:RDF>
      <cc:Work
         rdf:about="">
        <dc:format>image/svg+xml</dc:format>
        <dc:type
           rdf:resource="http://purl.org/dc/dcmitype/StillImage" />
      </cc:Work>
    </rdf:RDF>
  </metadata>
  <defs
     id="defs33" />
  <sodipodi:namedview
     pagecolor="#ffffff"
     bordercolor="#666666"
     borderopacity="1"
     objecttolerance="10"
     gridtolerance="10"
     guidetolerance="10"
     inkscape:pageopacity="0"
     inkscape:pageshadow="2"
     inkscape:window-width="640"
     inkscape:window-height="480"
     id="namedview31"
     showgrid="false"
     inkscape:zoom="14.511061"
     inkscape:cx="7.9366335"
     inkscape:cy="5.6045216"
     inkscape:window-x="1029"
     inkscape:window-y="325"
     inkscape:window-maximized="0"
     inkscape:current-layer="svg11324" />
  <path
     id="normal-left"
     style="opacity:0.1;fill:#cfd8dc;fill-opacity:1;stroke:none"
     d="m 9.5e-6,1 0,4.999999 1,0 0,-4.999999 -1,0 z" />
  <path
     id="normal-right"
     style="opacity:0.1;fill:#cfd8dc;fill-opacity:1;stroke:none"
     d="m 13.000009,1 0,4.999999 -1,0 0,-4.999999 1,0 z" />
  <rect
     id="normal-bottom"
     style="opacity:0.1;fill:#cfd8dc;fill-opacity:1;stroke:none"
     width="11"
     height="1"
     x="1"
     y="6" />
  <path
     id="normal-top"
     style="opacity:0.1;fill:#cfd8dc;fill-opacity:1;stroke:none"
     d="m 1.0000095,0 0,1 10.9999735,0 0,-1 -10.9999735,0 z" />
  <path
     id="hover-left"
     style="opacity:1;fill:#351c39;fill-opacity:1;stroke:none"
     d="m 9.5e-6,9.000001 0,4.999999 1,0 0,-4.999999 -1,0 z" />
  <path
     id="hover-right"
     style="opacity:1;fill:#351c39;fill-opacity:1;stroke:none"
     d="m 13.000009,9.000001 0,4.999999 -1,0 0,-4.999999 1,0 z" />
  <path
     id="hover-top"
     style="opacity:1;fill:#351c39;fill-opacity:1;stroke:none"
     d="m 1.0000095,8 0,0.998752 10.9999785,0 0,-0.998752 -10.9999785,0 z" />
  <path
     id="active-left"
     style="opacity:1;fill:#351c39;fill-opacity:1;stroke:none"
     d="m 0,17 0,4.999999 1,0 L 1,17 0,17 z" />
  <path
     id="active-right"
     style="opacity:1;fill:#351c39;fill-opacity:1;stroke:none"
     d="m 12.999999,17 0,4.999999 -1,0 0,-4.999999 1,0 z" />
  <rect
     id="active-bottom"
     style="opacity:1;fill:#351c39;fill-opacity:1;stroke:none"
     width="11"
     height="1.001"
     x="1"
     y="22" />
  <path
     id="active-top"
     style="opacity:1;fill:#351c39;fill-opacity:1;stroke:none"
     d="m 1,16 0,1 10.999977,0 0,-1 L 1,16 z" />
  <rect
     id="normal-center"
     style="opacity:0.1;fill:#cfd8dc;fill-opacity:1;stroke:none"
     width="11"
     height="5"
     x="1"
     y="-6"
     transform="scale(1,-1)" />
  <rect
     id="active-center"
     style="opacity:1;fill:#351c39;fill-opacity:1;stroke:none"
     width="11"
     height="5"
     x="1"
     y="-22"
     transform="scale(1,-1)" />
  <rect
     id="hover-center"
     style="opacity:1;fill:#351c39;fill-opacity:1;stroke:none"
     width="11"
     height="5"
     x="1"
     y="-14"
     transform="scale(1,-1)" />
  <g
     id="hover-bottom"
     transform="matrix(2.1999957,0,0,0.99875155,-1.1999862,-2.446941)"
     style="fill:#351c39;fill-opacity:1">
    <rect
       id="rect3076"
       style="opacity:1;fill:#351c39;fill-opacity:1;stroke:none"
       width="5"
       height="1.001"
       x="1"
       y="16.47" />
  </g>
  <path
     id="hover-bottomleft"
     style="opacity:1;color:#000000;fill:#351c39;fill-opacity:1;fill-rule:nonzero;stroke:none;stroke-width:1px;marker:none;visibility:visible;display:inline;overflow:visible;enable-background:accumulate"
     d="m 9.5e-6,14 c 0,0.552285 0.4477153,1 1,1 l 0,-1 -1,0 z" />
  <path
     id="hover-topleft"
     style="opacity:1;color:#000000;fill:#351c39;fill-opacity:1;fill-rule:nonzero;stroke:none;stroke-width:1px;marker:none;visibility:visible;display:inline;overflow:visible;enable-background:accumulate"
     d="m 9.5e-6,9 c 0,-0.552285 0.4477153,-1 1,-1 l 0,1 -1,0 z" />
  <path
     id="hover-topright"
     style="opacity:1;color:#000000;fill:#351c39;fill-opacity:1;fill-rule:nonzero;stroke:none;stroke-width:1px;marker:none;visibility:visible;display:inline;overflow:visible;enable-background:accumulate"
     d="m 13.000009,9 c 0,-0.552285 -0.447715,-1 -1,-1 l 0,1 1,0 z" />
  <path
     id="hover-bottomright"
     style="opacity:1;color:#000000;fill:#351c39;fill-opacity:1;fill-rule:nonzero;stroke:none;stroke-width:1px;marker:none;visibility:visible;display:inline;overflow:visible;enable-background:accumulate"
     d="m 13.000009,14 c 0,0.552285 -0.447715,1 -1,1 l 0,-1 1,0 z" />
  <path
     id="normal-bottomleft"
     style="opacity:0.1;color:#000000;fill:#cfd8dc;fill-opacity:1;fill-rule:nonzero;stroke:none;stroke-width:1px;marker:none;visibility:visible;display:inline;overflow:visible;enable-background:accumulate"
     d="m 9.5e-6,6 c 0,0.552285 0.4477153,1 1,1 l 0,-1 -1,0 z" />
  <path
     id="normal-topleft"
     style="opacity:0.1;color:#000000;fill:#cfd8dc;fill-opacity:1;fill-rule:nonzero;stroke:none;stroke-width:1px;marker:none;visibility:visible;display:inline;overflow:visible;enable-background:accumulate"
     d="m 9.5e-6,1 c 0,-0.552285 0.4477153,-1 1,-1 l 0,1 -1,0 z" />
  <path
     id="normal-topright"
     style="opacity:0.1;color:#000000;fill:#cfd8dc;fill-opacity:1;fill-rule:nonzero;stroke:none;stroke-width:1px;marker:none;visibility:visible;display:inline;overflow:visible;enable-background:accumulate"
     d="m 13.000009,1 c 0,-0.552285 -0.447715,-1 -1,-1 l 0,1 1,0 z" />
  <path
     id="normal-bottomright"
     style="opacity:0.1;color:#000000;fill:#cfd8dc;fill-opacity:1;fill-rule:nonzero;stroke:none;stroke-width:1px;marker:none;visibility:visible;display:inline;overflow:visible;enable-background:accumulate"
     d="m 13.000009,6 c 0,0.552285 -0.447715,1 -1,1 l 0,-1 1,0 z" />
  <path
     id="active-bottomleft"
     style="opacity:1;color:#000000;fill:#351c39;fill-opacity:1;fill-rule:nonzero;stroke:none;stroke-width:1px;marker:none;visibility:visible;display:inline;overflow:visible;enable-background:accumulate"
     d="m 9.5e-6,22 c 0,0.552285 0.4477153,1 1,1 l 0,-1 -1,0 z" />
  <path
     id="active-topleft"
     style="opacity:1;color:#000000;fill:#351c39;fill-opacity:1;fill-rule:nonzero;stroke:none;stroke-width:1px;marker:none;visibility:visible;display:inline;overflow:visible;enable-background:accumulate"
     d="m 9.5e-6,17 c 0,-0.552285 0.4477153,-1 1,-1 l 0,1 -1,0 z" />
  <path
     id="active-topright"
     style="opacity:1;color:#000000;fill:#351c39;fill-opacity:1;fill-rule:nonzero;stroke:none;stroke-width:1px;marker:none;visibility:visible;display:inline;overflow:visible;enable-background:accumulate"
     d="m 13.000009,17 c 0,-0.552285 -0.447715,-1 -1,-1 l 0,1 1,0 z" />
  <path
     id="active-bottomright"
     style="opacity:1;color:#000000;fill:#351c39;fill-opacity:1;fill-rule:nonzero;stroke:none;stroke-width:1px;marker:none;visibility:visible;display:inline;overflow:visible;enable-background:accumulate"
     d="m 13.000009,22 c 0,0.552285 -0.447715,1 -1,1 l 0,-1 1,0 z" />
</svg>
