<?xml version="1.0" encoding="UTF-8" standalone="no"?>
<svg
   xmlns:dc="http://purl.org/dc/elements/1.1/"
   xmlns:cc="http://creativecommons.org/ns#"
   xmlns:rdf="http://www.w3.org/1999/02/22-rdf-syntax-ns#"
   xmlns:svg="http://www.w3.org/2000/svg"
   xmlns="http://www.w3.org/2000/svg"
   xmlns:xlink="http://www.w3.org/1999/xlink"
   version="1.1"
   id="svg2"
   viewBox="0 0 173 56.000004"
   height="56.000004"
   width="173">
  <defs
     id="defs4">
    <style
       id="style2"
       type="text/css">
      .ColorScheme-Text {
        color:#57584f;
        stop-color:#57584f;
      }
      .ColorScheme-Background {
        color:#161613;
        stop-color:#161613;
      }
      .ColorScheme-Highlight {
        color:#ae81ff;
        stop-color:#ae81ff;
      }
      .ColorScheme-ViewText {
        color:#57584f;
        stop-color:#57584f;
      }
      .ColorScheme-ViewBackground {
        color:#1b1c16;
        stop-color:#1b1c16;
      }
      .ColorScheme-ViewHover {
        color:#ad80fe;
        stop-color:#ad80fe;
      }
      .ColorScheme-ViewFocus{
        color:#ae81ff;
        stop-color:#ae81ff;
      }
      .ColorScheme-ButtonText {
        color:#57584f;
        stop-color:#57584f;
      }
      .ColorScheme-ButtonBackground {
        color:#161613;
        stop-color:#161613;
      }
      .ColorScheme-ButtonHover {
        color:#ad80fe;
        stop-color:#ad80fe;
      }
      .ColorScheme-ButtonFocus{
        color:#ae81ff;
        stop-color:#ae81ff;
      }
      </style>
    <radialGradient
       r="6"
       fy="945.11224"
       fx="54.249981"
       cy="945.11224"
       cx="54.249981"
       gradientTransform="matrix(2.1665502e-7,1.0000002,-0.99998986,2.166522e-7,1058.1027,-6.2502157)"
       gradientUnits="userSpaceOnUse"
       id="radialGradient4944"
       xlink:href="#linearGradient4270" />
    <radialGradient
       r="6"
       fy="950.36188"
       fx="7.6428633"
       cy="950.36188"
       cx="7.6428633"
       gradientTransform="matrix(-0.99999977,-1.5530616e-6,1.5530619e-6,-1.0000003,80.641384,998.36216)"
       gradientUnits="userSpaceOnUse"
       id="radialGradient4938"
       xlink:href="#linearGradient4270" />
    <radialGradient
       r="6"
       fy="911.76221"
       fx="53.892849"
       cy="911.76221"
       cx="53.892849"
       gradientTransform="matrix(1.0000002,4.4078421e-7,-3.4750754e-7,1.0000036,59.107455,-903.76554)"
       gradientUnits="userSpaceOnUse"
       id="radialGradient4930"
       xlink:href="#linearGradient4270" />
    <radialGradient
       r="6"
       fy="913.9693"
       fx="22.200001"
       cy="913.9693"
       cx="22.200001"
       gradientTransform="matrix(-1.2274083e-7,-0.99999983,1.0000073,-1.2274096e-7,-840.97593,30.200088)"
       gradientUnits="userSpaceOnUse"
       id="radialGradient4924"
       xlink:href="#linearGradient4270" />
    <linearGradient
       y2="932.36218"
       x2="61"
       y1="932.36218"
       x1="55"
       gradientUnits="userSpaceOnUse"
       id="linearGradient4950"
       xlink:href="#linearGradient4270" />
    <linearGradient
       id="linearGradient4270">
      <stop
         style="stop-color:#000000;stop-opacity:0.66663194"
         offset="0"
         id="stop4272" />
      <stop
         style="stop-color:#000000;stop-opacity:0;"
         offset="1"
         id="stop4274" />
    </linearGradient>
    <linearGradient
       y2="932.36218"
       x2="-9"
       y1="932.36218"
       x1="-15"
       gradientUnits="userSpaceOnUse"
       id="linearGradient4948"
       xlink:href="#linearGradient4270" />
    <linearGradient
       gradientTransform="translate(58,0)"
       y2="53.999981"
       x2="51"
       y1="47.999981"
       x1="51"
       gradientUnits="userSpaceOnUse"
       id="linearGradient4942"
       xlink:href="#linearGradient4270" />
    <linearGradient
       y2="43.999981"
       x2="61"
       y1="43.999981"
       x1="55"
       gradientUnits="userSpaceOnUse"
       id="linearGradient4946"
       xlink:href="#linearGradient4270" />
    <linearGradient
       gradientTransform="translate(58,0)"
       y2="53.999981"
       x2="19"
       y1="47.999977"
       x1="19"
       gradientUnits="userSpaceOnUse"
       id="linearGradient4936"
       xlink:href="#linearGradient4270" />
    <linearGradient
       y2="43.999981"
       x2="9"
       y1="43.999981"
       x1="15"
       gradientUnits="userSpaceOnUse"
       id="linearGradient4940"
       xlink:href="#linearGradient4270" />
    <linearGradient
       y2="-35"
       x2="958.36218"
       y1="-35"
       x1="952.36218"
       gradientUnits="userSpaceOnUse"
       id="linearGradient4934"
       xlink:href="#linearGradient4270" />
    <linearGradient
       y2="11.99998"
       x2="61"
       y1="11.99998"
       x1="55"
       gradientUnits="userSpaceOnUse"
       id="linearGradient4928"
       xlink:href="#linearGradient4270" />
    <linearGradient
       gradientTransform="translate(58,0)"
       y2="1.9999795"
       x2="51"
       y1="7.9999795"
       x1="51"
       gradientUnits="userSpaceOnUse"
       id="linearGradient4932"
       xlink:href="#linearGradient4270" />
    <linearGradient
       y2="11.99998"
       x2="9"
       y1="11.99998"
       x1="15"
       gradientUnits="userSpaceOnUse"
       id="linearGradient4922"
       xlink:href="#linearGradient4270" />
    <linearGradient
       gradientTransform="translate(58,0)"
       y2="1.9999795"
       x2="19"
       y1="7.9999795"
       x1="19"
       gradientUnits="userSpaceOnUse"
       id="linearGradient4926"
       xlink:href="#linearGradient4270" />
    <linearGradient
       y2="-35"
       x2="-906.36218"
       y1="-35"
       x1="-912.36218"
       gradientUnits="userSpaceOnUse"
       id="linearGradient4920"
       xlink:href="#linearGradient4270" />
  </defs>
  <metadata
     id="metadata7">
    <rdf:RDF>
      <cc:Work
         rdf:about="">
        <dc:format>image/svg+xml</dc:format>
        <dc:type
           rdf:resource="http://purl.org/dc/dcmitype/StillImage" />
        <dc:title></dc:title>
      </cc:Work>
    </rdf:RDF>
  </metadata>
  <g
     transform="translate(0,-904.36218)"
     id="layer1">
    <rect
       y="904.36218"
       x="0"
       height="5"
       width="5"
       id="hint-tile-center"
       style="opacity:1;fill:#ff6600;fill-opacity:1;stroke:none" />
    <g
       id="top">
      <rect
         class="ColorScheme-Background"
         transform="matrix(0,-1,-1,0,0,0)"
         style="opacity:1;fill:currentColor;fill-opacity:1;stroke:none"
         id="rect4152"
         width="6"
         height="32"
         x="-916.36218"
         y="-50.999985" />
    </g>
    <g
       id="topleft">
      <path
         class="ColorScheme-Background"
         id="rect4159"
         transform="translate(0,904.36218)"
         d="m 14,6 c -0.553986,0 -1,0.4460137 -1,1 l 0,4 0,1 4,0 1,0 1,0 0,-1 0,-4 0,-1 -1,0 -1,0 -3,0 z"
         style="opacity:1;fill:currentColor;fill-opacity:1" />
    </g>
    <g
       id="topright">
      <path
         class="ColorScheme-Background"
         id="rect4177"
         transform="translate(0,904.36218)"
         d="m 51,6 0,1 0,4 0,1 1,0 1,0 3,0 1,0 0,-1 0,-4 C 57,6.4460137 56.553986,6 56,6 l -3,0 -1,0 -1,0 z"
         style="opacity:1;fill:currentColor;fill-opacity:1" />
    </g>
    <g
       id="bottom">
      <rect
         class="ColorScheme-Background"
         y="-50.999985"
         x="948.36218"
         height="32"
         width="6"
         id="rect4148"
         style="opacity:1;fill:currentColor;fill-opacity:1;stroke:none"
         transform="matrix(0,1,-1,0,0,0)" />
    </g>
    <g
       id="bottomleft">
      <path
         class="ColorScheme-Background"
         id="path5048"
         d="m 19,954.36218 0,-1 0,-4 0,-1 -1,0 -1,0 -3,0 -1,0 0,1 0,4 c 0,0.55399 0.446014,1 1,1 l 3,0 1,0 1,0 z"
         style="opacity:1;fill:currentColor;fill-opacity:1" />
    </g>
    <g
       id="bottomright">
      <path
         class="ColorScheme-Background"
         style="opacity:1;fill:currentColor;fill-opacity:1"
         d="m 51,954.36218 0,-1 0,-4 0,-1 1,0 1,0 3,0 1,0 0,1 0,4 c 0,0.55399 -0.446014,1 -1,1 l -3,0 -1,0 -1,0 z"
         id="rect4177-6" />
    </g>
    <g
       id="left">
      <rect
         class="ColorScheme-Background"
         y="916.36218"
         x="-19.000004"
         height="32"
         width="5.9999995"
         id="rect4144"
         style="opacity:1;fill:currentColor;fill-opacity:1;stroke:none"
         transform="scale(-1,1)" />
    </g>
    <g
       id="right">
      <rect
         class="ColorScheme-Background"
         style="opacity:1;fill:currentColor;fill-opacity:1;stroke:none"
         id="rect4140"
         width="5.9999995"
         height="32"
         x="50.999985"
         y="916.36218" />
    </g>
    <g
       id="center">
      <rect
         style="opacity:1;fill:none;fill-opacity:1;stroke:none"
         id="rect4401"
         width="32"
         height="32"
         x="19.000004"
         y="916.36218" />
      <rect
         class="ColorScheme-Background"
         y="916.36218"
         x="19.000004"
         height="32"
         width="32"
         id="rect4138"
         style="opacity:1;fill:currentColor;fill-opacity:1;stroke:none" />
    </g>
    <rect
       y="910.36218"
       x="33"
       height="1.9999769"
       width="4"
       id="hint-top-margin"
       style="fill:#ff00ff;fill-opacity:1;stroke:none" />
    <rect
       style="fill:#ff00ff;fill-opacity:1;stroke:none"
       id="hint-bottom-margin"
       width="4"
       height="2.0000231"
       x="33"
       y="952.36218" />
    <rect
       transform="matrix(0,1,-1,0,0,0)"
       style="fill:#ff00ff;fill-opacity:1;stroke:none"
       id="hint-right-margin"
       width="3.9999769"
       height="1.9999847"
       x="930.36218"
       y="-56.999985" />
    <rect
       transform="matrix(0,1,-1,0,0,0)"
       y="-14.999996"
       x="930.36218"
       height="2.0000019"
       width="4"
       id="hint-left-margin"
       style="fill:#ff00ff;fill-opacity:1;stroke:none" />
    <g
       transform="translate(116,0)"
       id="mask-top">
      <rect
         y="-51"
         x="-915.36218"
         height="32.000015"
         width="4.9999771"
         id="rect4265"
         style="opacity:0.97000002;fill:#000000;fill-opacity:1;stroke:none"
         transform="matrix(0,-1,-1,0,0,0)" />
    </g>
    <g
       transform="translate(116,0)"
       id="mask-topleft">
      <path
         id="path4277"
         transform="translate(-116,904.36218)"
         d="M 130 6 C 129.44601 6 129 6.4460137 129 7 L 129 11 L 134 11 L 134 6 L 133 6 L 130 6 z "
         style="opacity:0.97000002;fill:#000000;fill-opacity:1" />
    </g>
    <g
       transform="translate(116,0)"
       id="mask-topright">
      <path
         id="path4287"
         transform="translate(-116,904.36218)"
         d="M 168 6 L 168 11 L 173 11 L 173 7 C 173 6.4460137 172.55399 6 172 6 L 169 6 L 168 6 z "
         style="opacity:0.97000002;fill:#000000;fill-opacity:1" />
    </g>
    <g
       transform="translate(116,0)"
       id="mask-bottom">
      <rect
         transform="matrix(0,1,-1,0,0,0)"
         style="opacity:0.97000002;fill:#000000;fill-opacity:1;stroke:none"
         id="rect4291"
         width="5.0000229"
         height="32.000015"
         x="949.36218"
         y="-51" />
    </g>
    <g
       transform="translate(116,0)"
       id="mask-bottomleft">
      <path
         id="path4303"
         transform="translate(-116,904.36218)"
         d="M 129 45 L 129 49 C 129 49.55399 129.44601 50 130 50 L 133 50 L 134 50 L 134 45 L 129 45 z "
         style="opacity:0.97000002;fill:#000000;fill-opacity:1" />
    </g>
    <g
       transform="translate(116,0)"
       id="mask-bottomright">
      <path
         id="path4313"
         transform="translate(-116,904.36218)"
         d="M 168 45 L 168 50 L 169 50 L 172 50 C 172.55399 50 173 49.55399 173 49 L 173 45 L 168 45 z "
         style="opacity:0.97000002;fill:#000000;fill-opacity:1" />
    </g>
    <g
       transform="translate(116,0)"
       id="mask-left">
      <rect
         transform="scale(-1,1)"
         style="opacity:0.97000002;fill:#000000;fill-opacity:1;stroke:none"
         id="rect4317"
         width="4.9999962"
         height="32.000023"
         x="-18"
         y="916.36218" />
    </g>
    <g
       transform="translate(116,0)"
       id="mask-right">
      <rect
         y="916.36218"
         x="52"
         height="32.000023"
         width="4.9999847"
         id="rect4323"
         style="opacity:0.97000002;fill:#000000;fill-opacity:1;stroke:none" />
    </g>
    <g
       transform="translate(116,0)"
       id="mask-center">
      <rect
         y="916.36218"
         x="19.000004"
         height="32"
         width="32"
         id="rect4329"
         style="opacity:1;fill:none;fill-opacity:1;stroke:none" />
      <rect
         style="opacity:0.97000002;fill:#000000;fill-opacity:1;stroke:none"
         id="rect4331"
         width="32"
         height="32"
         x="19.000004"
         y="916.36218" />
    </g>
    <g
       transform="translate(58,-1.8530272e-7)"
       id="shadow-top">
      <rect
         y="-50.999985"
         x="-916.36218"
         height="32"
         width="6"
         id="rect4820"
         style="opacity:1;fill:none;fill-opacity:1;stroke:none"
         transform="matrix(0,-1,-1,0,0,0)" />
      <rect
         y="-50.999985"
         x="-910.36218"
         height="32"
         width="6"
         id="rect4822"
         style="opacity:0.9;fill:url(#linearGradient4920);fill-opacity:1;stroke:none"
         transform="matrix(0,-1,-1,0,0,0)" />
      <rect
         transform="matrix(0,-1,-1,0,0,0)"
         style="opacity:1;fill:none;fill-opacity:1;stroke:none"
         id="rect4824"
         width="0.99997741"
         height="32"
         x="-911.36218"
         y="-50.999985" />
    </g>
    <g
       transform="translate(58,-1.8530272e-7)"
       id="shadow-topleft">
      <path
         style="opacity:0.9;fill:url(#linearGradient4922);fill-opacity:1;fill-rule:evenodd;stroke:none;stroke-width:1px;stroke-linecap:butt;stroke-linejoin:miter;stroke-opacity:1"
         d="m 7,7 0,1 0,4 6,0 0,-4 0,-1 -6,0 z"
         transform="translate(0,904.36218)"
         id="path4828" />
      <path
         id="path4830"
         transform="translate(-58,904.36218)"
         d="m 65,0 0,7 6,0 c 0,-1 1,-1 1,-1 l 0,-6 -7,0 z"
         style="opacity:1;fill:url(#radialGradient4924);fill-opacity:1;fill-rule:evenodd;stroke:none;stroke-width:1px;stroke-linecap:butt;stroke-linejoin:miter;stroke-opacity:1" />
      <path
         id="path4832"
         transform="translate(-58,904.36218)"
         d="m 72,0 0,6 1,0 4,0 0,-6 -4,0 -1,0 z"
         style="opacity:0.9;fill:url(#linearGradient4926);fill-opacity:1;fill-rule:evenodd;stroke:none;stroke-width:1px;stroke-linecap:butt;stroke-linejoin:miter;stroke-opacity:1" />
      <rect
         transform="scale(-1,1)"
         style="fill:none;fill-opacity:1"
         id="rect4834"
         width="5.9999919"
         height="6.0000224"
         x="-19.000004"
         y="910.36218"
         ry="0.9999752" />
      <rect
         transform="scale(-1,1)"
         style="fill:none;fill-opacity:1"
         id="rect4836"
         width="2.0000038"
         height="5.9999752"
         x="-19.000004"
         y="910.36218"
         ry="0" />
      <rect
         transform="scale(-1,1)"
         style="fill:none;fill-opacity:1"
         id="rect4838"
         width="4.9999924"
         height="2.0000248"
         x="-18"
         y="914.36218" />
    </g>
    <g
       transform="translate(58,-1.8530272e-7)"
       id="shadow-topright">
      <path
         style="opacity:0.9;fill:url(#linearGradient4928);fill-opacity:1;fill-rule:evenodd;stroke:none;stroke-width:1px;stroke-linecap:butt;stroke-linejoin:miter;stroke-opacity:1"
         d="m 57,7 0,1 0,4 6,0 0,-4 0,-1 -6,0 z"
         transform="translate(0,904.36218)"
         id="path4842" />
      <path
         transform="translate(-58,904.36218)"
         id="path4844"
         d="m 114,0 0,6 c 0,0 1,0 1,1 l 6,0 0,-7 -7,0 z"
         style="opacity:1;fill:url(#radialGradient4930);fill-opacity:1;fill-rule:evenodd;stroke:none;stroke-width:1px;stroke-linecap:butt;stroke-linejoin:miter;stroke-opacity:1" />
      <path
         id="path4846"
         transform="translate(-58,904.36218)"
         d="m 109,0 0,6 4,0 1,0 0,-6 -1,0 -4,0 z"
         style="opacity:0.9;fill:url(#linearGradient4932);fill-opacity:1;fill-rule:evenodd;stroke:none;stroke-width:1px;stroke-linecap:butt;stroke-linejoin:miter;stroke-opacity:1" />
      <rect
         ry="0.9999752"
         y="910.36218"
         x="50.999985"
         height="6.0000224"
         width="5.9999957"
         id="rect4848"
         style="fill:none;fill-opacity:1" />
      <rect
         ry="0"
         y="910.36218"
         x="50.999985"
         height="5.9999752"
         width="2.0000153"
         id="rect4850"
         style="fill:none;fill-opacity:1" />
      <rect
         y="914.36218"
         x="52"
         height="2.0000248"
         width="4.9999809"
         id="rect4852"
         style="fill:none;fill-opacity:1" />
    </g>
    <g
       transform="translate(58,-1.8530272e-7)"
       id="shadow-bottom">
      <rect
         transform="matrix(0,1,-1,0,0,0)"
         style="opacity:1;fill:none;fill-opacity:1;stroke:none"
         id="rect4856"
         width="6"
         height="32"
         x="948.36218"
         y="-50.999985" />
      <rect
         transform="matrix(0,1,-1,0,0,0)"
         style="opacity:0.9;fill:url(#linearGradient4934);fill-opacity:1;stroke:none"
         id="rect4858"
         width="6"
         height="32"
         x="954.36218"
         y="-50.999985" />
      <rect
         y="-50.999985"
         x="953.36218"
         height="31.999971"
         width="1.0000226"
         id="rect4860"
         style="opacity:1;fill:none;fill-opacity:1;stroke:none"
         transform="matrix(0,1,-1,0,0,0)" />
    </g>
    <g
       transform="translate(58,-1.8530272e-7)"
       id="shadow-bottomleft">
      <path
         id="path4864"
         transform="translate(-58,904.36218)"
         d="m 72,50 0,6 1,0 4,0 0,-6 -4,0 -1,0 z"
         style="opacity:0.9;fill:url(#linearGradient4936);fill-opacity:1;fill-rule:evenodd;stroke:none;stroke-width:1px;stroke-linecap:butt;stroke-linejoin:miter;stroke-opacity:1" />
      <path
         id="path4866"
         transform="translate(-58,904.36218)"
         d="m 65,49 0,7 7,0 0,-6 c -1,0 -1,-1 -1,-1 l -6,0 z"
         style="opacity:1;fill:url(#radialGradient4938);fill-opacity:1;fill-rule:evenodd;stroke:none;stroke-width:1px;stroke-linecap:butt;stroke-linejoin:miter;stroke-opacity:1" />
      <path
         style="opacity:0.9;fill:url(#linearGradient4940);fill-opacity:1;fill-rule:evenodd;stroke:none;stroke-width:1px;stroke-linecap:butt;stroke-linejoin:miter;stroke-opacity:1"
         d="m 7,44 0,4 0,1 6,0 0,-1 0,-4 -6,0 z"
         transform="translate(0,904.36218)"
         id="path4868" />
      <rect
         transform="scale(-1,-1)"
         ry="0.99971962"
         y="-954.36188"
         x="-19.000004"
         height="5.999999"
         width="5.9999957"
         id="rect4870"
         style="fill:none;fill-opacity:1" />
      <rect
         ry="0"
         y="-954.36218"
         x="-19.000004"
         height="6.0000248"
         width="2.0000038"
         id="rect4872"
         style="fill:none;fill-opacity:1"
         transform="scale(-1,-1)" />
      <rect
         y="-950.36218"
         x="-18"
         height="2.0000362"
         width="4.9999714"
         id="rect4874"
         style="fill:none;fill-opacity:1"
         transform="scale(-1,-1)" />
    </g>
    <g
       transform="translate(58,-1.8530272e-7)"
       id="shadow-bottomright">
      <path
         id="path4878"
         transform="translate(-58,904.36218)"
         d="m 109,50 0,6 4,0 1,0 0,-6 -1,0 -4,0 z"
         style="opacity:0.9;fill:url(#linearGradient4942);fill-opacity:1;fill-rule:evenodd;stroke:none;stroke-width:1px;stroke-linecap:butt;stroke-linejoin:miter;stroke-opacity:1" />
      <path
         id="path4880"
         transform="translate(-58,904.36218)"
         d="m 115,49 c 0,0 0,1 -1,1 l 0,6 7,0 0,-7 -6,0 z"
         style="opacity:1;fill:url(#radialGradient4944);fill-opacity:1;fill-rule:evenodd;stroke:none;stroke-width:1px;stroke-linecap:butt;stroke-linejoin:miter;stroke-opacity:1" />
      <path
         style="opacity:0.9;fill:url(#linearGradient4946);fill-opacity:1;fill-rule:evenodd;stroke:none;stroke-width:1px;stroke-linecap:butt;stroke-linejoin:miter;stroke-opacity:1"
         d="m 57,44 0,4 0,1 6,0 0,-1 0,-4 -6,0 z"
         transform="translate(0,904.36218)"
         id="path4882" />
      <rect
         transform="scale(1,-1)"
         style="fill:none;fill-opacity:1"
         id="rect4884"
         width="5.9999957"
         height="5.999999"
         x="50.999985"
         y="-954.36188"
         ry="0.99971962" />
      <rect
         transform="scale(1,-1)"
         style="fill:none;fill-opacity:1"
         id="rect4886"
         width="2.0000153"
         height="6.0000248"
         x="50.999985"
         y="-954.36218"
         ry="0" />
      <rect
         transform="scale(1,-1)"
         style="fill:none;fill-opacity:1"
         id="rect4888"
         width="4.9999847"
         height="2.0000362"
         x="52"
         y="-950.36218" />
    </g>
    <g
       transform="translate(58,-1.8530272e-7)"
       id="shadow-left">
      <rect
         transform="scale(-1,1)"
         style="opacity:1;fill:none;fill-opacity:1;stroke:none"
         id="rect4892"
         width="5.9999995"
         height="32"
         x="-19.000004"
         y="916.36218" />
      <rect
         transform="scale(-1,1)"
         style="opacity:0.9;fill:url(#linearGradient4948);fill-opacity:1;stroke:none"
         id="rect4894"
         width="5.9999995"
         height="32"
         x="-13.000002"
         y="916.36218" />
      <rect
         y="916.36218"
         x="-14.000002"
         height="32.000023"
         width="1.0000019"
         id="rect4896"
         style="opacity:1;fill:none;fill-opacity:1;stroke:none"
         transform="scale(-1,1)" />
    </g>
    <g
       transform="translate(58,-1.8530272e-7)"
       id="shadow-right">
      <rect
         y="916.36218"
         x="50.999985"
         height="32"
         width="5.9999995"
         id="rect4900"
         style="opacity:1;fill:none;fill-opacity:1;stroke:none" />
      <rect
         y="916.36218"
         x="56.999985"
         height="32"
         width="5.9999995"
         id="rect4902"
         style="opacity:0.9;fill:url(#linearGradient4950);fill-opacity:1;stroke:none" />
      <rect
         style="opacity:1;fill:none;fill-opacity:1;stroke:none"
         id="rect4904"
         width="1"
         height="32.000023"
         x="55.999985"
         y="916.36218" />
    </g>
    <g
       transform="translate(58,-1.8530272e-7)"
       id="shadow-center">
      <rect
         y="916.36218"
         x="19.000004"
         height="32"
         width="32"
         id="rect4908"
         style="opacity:1;fill:none;fill-opacity:1;stroke:none" />
      <rect
         style="opacity:1;fill:none;fill-opacity:1;stroke:none"
         id="rect4910"
         width="32"
         height="32"
         x="19.000004"
         y="916.36218" />
    </g>
    <rect
       style="fill:#ff00ff;fill-opacity:1;stroke:none"
       id="shadow-hint-top-margin"
       width="4"
       height="5.9999771"
       x="91"
       y="904.36218" />
    <rect
       y="954.36218"
       x="91"
       height="6.0000229"
       width="4"
       id="shadow-hint-bottom-margin"
       style="fill:#ff00ff;fill-opacity:1;stroke:none" />
    <rect
       y="-120.99998"
       x="930.36218"
       height="5.9999771"
       width="3.9999769"
       id="shadow-hint-right-margin"
       style="fill:#ff00ff;fill-opacity:1;stroke:none"
       transform="matrix(0,1,-1,0,0,0)" />
    <rect
       style="fill:#ff00ff;fill-opacity:1;stroke:none"
       id="shadow-hint-left-margin"
       width="4.0000229"
       height="6"
       x="930.36218"
       y="-71"
       transform="matrix(0,1,-1,0,0,0)" />
  </g>
</svg>
