<?xml version="1.0" encoding="UTF-8" standalone="no"?>
<!-- Created with Inkscape (http://www.inkscape.org/) -->

<svg
   xmlns:dc="http://purl.org/dc/elements/1.1/"
   xmlns:cc="http://creativecommons.org/ns#"
   xmlns:rdf="http://www.w3.org/1999/02/22-rdf-syntax-ns#"
   xmlns:svg="http://www.w3.org/2000/svg"
   xmlns="http://www.w3.org/2000/svg"
   xmlns:xlink="http://www.w3.org/1999/xlink"
   xmlns:sodipodi="http://sodipodi.sourceforge.net/DTD/sodipodi-0.dtd"
   xmlns:inkscape="http://www.inkscape.org/namespaces/inkscape"
   width="64"
   version="1.1"
   height="64"
   id="svg40"
   sodipodi:docname="user-desktop.svg"
   inkscape:version="0.92.4 5da689c313, 2019-01-14">
  <metadata
     id="metadata44">
    <rdf:RDF>
      <cc:Work
         rdf:about="">
        <dc:format>image/svg+xml</dc:format>
        <dc:type
           rdf:resource="http://purl.org/dc/dcmitype/StillImage" />
      </cc:Work>
    </rdf:RDF>
  </metadata>
  <sodipodi:namedview
     pagecolor="#ad9760"
     bordercolor="#666666"
     borderopacity="1"
     objecttolerance="10"
     gridtolerance="10"
     guidetolerance="10"
     inkscape:pageopacity="0"
     inkscape:pageshadow="2"
     inkscape:window-width="1920"
     inkscape:window-height="1015"
     id="namedview42"
     showgrid="false"
     inkscape:zoom="2.6074563"
     inkscape:cx="151.9515"
     inkscape:cy="-49.961934"
     inkscape:window-x="0"
     inkscape:window-y="32"
     inkscape:window-maximized="1"
     inkscape:current-layer="g4578" />
  <defs
     id="defs5455">
    <linearGradient
       inkscape:collect="always"
       xlink:href="#linearGradient4697"
       id="linearGradient4703"
       y1="503.07938"
       x1="418.16971"
       y2="531.45813"
       x2="384.57144"
       gradientUnits="userSpaceOnUse"
       gradientTransform="translate(-2.69317,5.7603339)" />
    <linearGradient
       inkscape:collect="always"
       id="linearGradient4697">
      <stop
         style="stop-color:#1abc9c"
         id="stop4699" />
      <stop
         offset="1"
         style="stop-color:#2980b9"
         id="stop4701" />
    </linearGradient>
  </defs>
  <g
     inkscape:label="Capa 1"
     inkscape:groupmode="layer"
     id="layer1"
     transform="matrix(1 0 0 1 -384.57143 -483.798)">
    <g
       id="g4578"
       transform="matrix(1.2083328,0,0,1.5888879,-74.135779,-319.35854)">
      <path
         inkscape:connector-curvature="0"
         style="fill:url(#linearGradient4703);stroke-width:1.0909096"
         id="path4589"
         d="m 381.87827,509.55835 v 32.72729 h 48.00002 v -32.72729 z" />
    </g>
    <g
       id="g4255"
       transform="translate(-0.27116588,0.47455647)">
      <path
         inkscape:connector-curvature="0"
         style="fill:#ad9760;fill-opacity:0.78431396"
         id="rect4128"
         d="m 387.57143,537.798 v 3.2 0.8 h 1 56 1 v -0.8 -3.2 z" />
      <g
         id="text4213"
         transform="matrix(0.64829823,0,0,0.64829823,155.63174,190.06072)">
        <path
           inkscape:connector-curvature="0"
           id="path4218"
           d="m 434.23853,537.83412 c -0.15893,0.11003 -0.36677,0.22414 -0.54201,0.30157 l 0.0734,0.28934 c 0.14264,-0.0448 0.27305,-0.12225 0.43198,-0.22414 v 2.60819 h 0.35455 v -2.97496 h -0.31787 z" />
        <path
           inkscape:connector-curvature="0"
           id="path4220"
           d="m 435.20119,538.03381 0.11819,0.29749 c 0.16708,-0.17116 0.41568,-0.24452 0.66427,-0.24452 0.33825,0 0.52571,0.18747 0.52571,0.51757 v 0.0204 c -0.004,0.2323 -0.15486,0.46051 -0.38715,0.71726 l -1.02697,1.14108 0.0448,0.32602 h 1.74016 l 0.0245,-0.30565 h -1.38153 l 0.83951,-0.89656 c 0.32603,-0.35048 0.52572,-0.63575 0.52979,-1.01067 v -0.0122 c 0,-0.48904 -0.34232,-0.81098 -0.88434,-0.81098 -0.38715,0 -0.63982,0.10595 -0.80691,0.26082 z" />
        <path
           inkscape:connector-curvature="0"
           id="path4222"
           d="m 437.42599,540.85799 h 0.4116 v -0.46459 h -0.4116 z m 0,-1.82574 h 0.4116 v -0.46051 h -0.4116 z" />
        <path
           inkscape:connector-curvature="0"
           id="path4224"
           d="m 439.75394,539.98995 c 0,0.3627 -0.2649,0.56239 -0.65613,0.56239 -0.30157,0 -0.50941,-0.0978 -0.6602,-0.21599 l -0.1141,0.28934 c 0.11003,0.10596 0.39122,0.22822 0.77838,0.22822 0.57869,0 1.00252,-0.3301 1.00252,-0.85989 0,-0.41975 -0.23229,-0.68872 -0.59499,-0.77023 0.32195,-0.0978 0.52164,-0.3301 0.52164,-0.71317 0,-0.47681 -0.41161,-0.73763 -0.85174,-0.73763 -0.41161,0 -0.6765,0.0897 -0.85581,0.22821 l 0.1141,0.28935 c 0.15894,-0.12634 0.39123,-0.21192 0.66428,-0.21192 0.35047,0 0.54609,0.14671 0.54609,0.47681 0,0.46866 -0.43198,0.52164 -0.88842,0.52164 v 0.29342 c 0.55424,0 0.99438,0.0856 0.99438,0.61945 z" />
        <path
           inkscape:connector-curvature="0"
           id="path4226"
           d="m 441.86538,538.2824 v 1.49971 h -0.99437 z m 0.67243,1.78905 0.0285,-0.28934 h -0.36678 v -1.94799 h -0.37085 l -1.30817,1.93169 v 0.30564 h 1.34484 v 0.73763 h 0.33418 v -0.73763 h 0.33825 z" />
      </g>
      <path
         inkscape:connector-curvature="0"
         style="color:#000000"
         id="path2994"
         d="m 391.07143,538.69839 a 0.16666666,0.16666666 0 0 0 -0.16667,0.16667 0.16666666,0.16666666 0 0 0 0.16667,0.16667 0.16666666,0.16666666 0 0 0 0.16666,-0.16667 0.16666666,0.16666666 0 0 0 -0.16666,-0.16667 z m 0.83333,0 -0.32292,0.26042 0.43229,0.53646 -0.40625,0.40625 0.29688,0.29687 0.66667,-0.66667 z m -1.08333,0.66667 a 0.25,0.25 0 0 0 -0.25,0.25 0.25,0.25 0 0 0 0.25,0.25 0.25,0.25 0 0 0 0.25,-0.25 0.25,0.25 0 0 0 -0.25,-0.25 z m 0.5,0.83333 a 0.25,0.25 0 0 0 -0.25,0.25 0.25,0.25 0 0 0 0.25,0.25 0.25,0.25 0 0 0 0.25,-0.25 0.25,0.25 0 0 0 -0.25,-0.25 z" />
    </g>
  </g>
</svg>
