<svg id="svg4551" height="3.5mm" style="" viewBox="0 0 18.5 3.5" width="18.5mm" xmlns="http://www.w3.org/2000/svg" xmlns:xlink="http://www.w3.org/1999/xlink">
<g id="active-center" style="" transform="matrix(.21497396 0 0 .21497396 -138.6582 39.968183)">
<path id="bg" d="m645-185.64h16v16h-16z" style="opacity:.99;fill:none"/>
<path id="ico" d="m653.00001-184.6378a7 7 0 0 0 -7 7 7 7 0 0 0 7 7 7 7 0 0 0 7-7 7 7 0 0 0 -7-7zm-3 3.92188h.75c.008-.00009.0156-.00035.0234 0 .19121.008.3824.0964.51562.23437l1.71098 1.71094 1.73438-1.71094c.19921-.17287.335-.22912.51562-.23437h.75v.75c0 .21485-.0258.41298-.1875.5625l-1.71094 1.71093 1.6875 1.6875c.14114.14113.21093.34009.21094.53907v.75h-.75c-.19898-.00001-.39794-.0698-.53906-.21094l-1.71094-1.71094-1.71094 1.71094c-.14112.14114-.34009.21094-.53906.21094h-.75v-.75c0-.19897.0698-.39794.21094-.53907l1.71094-1.6875-1.71094-1.71093c-.15806-.14598-.22737-.35194-.21094-.5625z" style="fill:#e70340"/>
</g>
<g id="hover-center" style="">
<use id="clone" height="100%" style="" transform="translate(3.704163)" width="100%" xlink:href="#active-center"/>
<path id="ico-3" d="m5.4239601.275864a1.5048177 1.5048177 0 0 0 -1.5048177 1.5048177 1.5048177 1.5048177 0 0 0 1.5048177 1.5048177 1.5048177 1.5048177 0 0 0 1.5048177-1.5048177 1.5048177 1.5048177 0 0 0 -1.5048177-1.5048177zm-.6449219.8431021h.1612305c.00172-.0000194.00335-.0000753.00503 0 .041105.00172.082206.020723.1108449.050383l.3678165.367808.3728465-.3678076c.042825-.037162.072016-.049255.1108449-.050383h.1612305v.1612304c0 .046187-.00555.08878-.040308.1209229l-.3678072.367805.3627686.3627685c.030341.030339.045345.073111.045347.1158861v.1612304h-.1612309c-.042775-.0000021-.085547-.015005-.1158838-.045347l-.3678076-.3678071-.3678075.3678075c-.030337.030341-.073111.045347-.1158839.045347h-.1612305v-.1612308c0-.042773.015005-.085547.045347-.1158861l.3678072-.3627685-.3678076-.3678054c-.0339788-.0313819-.0488786-.0756579-.0453466-.1209229z" style="fill:#ffffff;opacity:.24"/>
</g>
<use id="pressed-center" height="100%" style="" transform="translate(3.704167)" width="100%" xlink:href="#hover-center"/>
<g id="inactive-center" style="" transform="matrix(.21497396 0 0 .21497396 -127.5457 39.968182)">
<path id="bg-7" d="m645-185.64h16v16h-16z" style="opacity:.99;fill:none"/>
<path id="ico-5" d="m653.00001-184.6378a7 7 0 0 0 -7 7 7 7 0 0 0 7 7 7 7 0 0 0 7-7 7 7 0 0 0 -7-7zm-3 3.92188h.75c.008-.00009.0156-.00035.0234 0 .19121.008.3824.0964.51562.23437l1.71098 1.71094 1.73438-1.71094c.19921-.17287.335-.22912.51562-.23437h.75v.75c0 .21485-.0258.41298-.1875.5625l-1.71094 1.71093 1.6875 1.6875c.14114.14113.21093.34009.21094.53907v.75h-.75c-.19898-.00001-.39794-.0698-.53906-.21094l-1.71094-1.71094-1.71094 1.71094c-.14112.14114-.34009.21094-.53906.21094h-.75v-.75c0-.19897.0698-.39794.21094-.53907l1.71094-1.6875-1.71094-1.71093c-.15806-.14598-.22737-.35194-.21094-.5625z" style="fill:#3b3c36"/>
</g>
<use id="deactivated-center" height="100%" style="" transform="translate(3.704163)" width="100%" xlink:href="#inactive-center"/>
</svg>
