<svg id="svg4551" height="3.5mm" style="" viewBox="0 0 18.5 3.5" width="18.5mm" xmlns="http://www.w3.org/2000/svg" xmlns:xlink="http://www.w3.org/1999/xlink">
<g id="active-center" style="" transform="matrix(.21497396 0 0 -.21497396 0 3.5)">
<path id="bg" d="m0 0h16v16h-16z" style="opacity:.7;fill:none"/>
<path id="ico" d="m8.076923 10.919751-3-3.0000004h2v-2c0-.554.446-1 1-1s1 .446 1 1v2h2z" style="fill:#43443d"/>
</g>
<g id="hover-center" style="" transform="translate(0 -293.50001)">
<use id="clone" height="100%" style="" transform="translate(3.704167 293.5)" width="100%" xlink:href="#active-center"/>
<path id="ico-2" d="m5.4404952 294.65254-.6449219.64492h.4299479v.42995c0 .1191.095878.21497.214974.21497.1190955 0 .2149739-.0959.2149739-.21497v-.42995h.429948z" style="opacity:.24;fill:#ffffff"/>
</g>
<use id="pressed-center" height="100%" style="" transform="translate(3.704167 .000003)" width="100%" xlink:href="#hover-center"/>
<g id="inactive-center" style="" transform="matrix(.21497396 0 0 -.21497396 11.1125 3.5)">
<path id="bg-3" d="m0 0h16v16h-16z" style="opacity:.7;fill:none"/>
<path id="ico-5" d="m8.076923 10.919751-3-3.0000004h2v-2c0-.554.446-1 1-1s1 .446 1 1v2h2z" style="fill:#3b3c36"/>
</g>
<use id="deactivated-center" height="100%" style="" transform="translate(3.704167)" width="100%" xlink:href="#inactive-center"/>
</svg>
