<svg id="svg919" height="14mm" style="" viewBox="0 0 71 14" width="71mm" xmlns="http://www.w3.org/2000/svg" xmlns:xlink="http://www.w3.org/1999/xlink">
<linearGradient id="linearGradient831" gradientUnits="userSpaceOnUse" style="" x1="0" x2="13.758334" y1="7.120796" y2="7.120796">
<stop id="stop1" offset="0" style="stop-color:#e70340"/>
<stop id="stop2" offset="1" style="stop-color:#9f1d2b"/>
</linearGradient>
<circle id="active-center" cx="6.879167" cy="7.120833" r="6.879167" style="stroke-width:.529167;fill:url(#linearGradient831)"/>
<circle id="inactive-center" cx="-49.741665" cy="7.120803" r="6.879167" style="fill:#3b3c36;stroke-width:.529167" transform="scale(-1 1)"/>
<use id="deactivated-center" height="100%" style="" transform="translate(14.287502 -.000002)" width="100%" xlink:href="#inactive-center"/>
<g id="hover-center" style="">
<use id="hc" height="100%" style="" transform="translate(14.2875 -.000012)" width="100%" xlink:href="#active-center"/>
<path id="px" d="m18.613733 4.5577779c-.37285.3735233-.37285.9749804 0 1.3486084l1.34608 1.3486085-1.34608 1.3486082c-.37285.3736355-.37285.9750739 0 1.3486082.372847.3736348.973215.3736348 1.34608 0l1.34608-1.3486082 1.34608 1.3486082c.372851.3736348.973216.3736348 1.346081 0 .372848-.3735232.372848-.9749838 0-1.3486082l-1.346081-1.3486082 1.346081-1.3486085c.372848-.3736357.372848-.9750738 0-1.3486084-.372848-.3736355-.973217-.3736355-1.346081 0l-1.34608 1.3486084-1.34608-1.3486084c-.372851-.3736355-.973217-.3736355-1.34608 0z" style="opacity:.5;fill:#161613"/>
</g>
<g id="pressed-center" style="">
<circle id="pc" cx="35.454166" cy="7.120833" r="6.879167" style="fill:#e70340;stroke-width:.529167"/>
<use id="pxl" height="100%" style="" transform="translate(14.32372 .075715)" width="100%" xlink:href="#px"/>
</g>
</svg>
